<svg width="1440" height="244" viewBox="0 0 1440 244" fill="none" xmlns="http://www.w3.org/2000/svg">
<line x1="130.493" y1="0.0812116" x2="90.4934" y2="243.081" stroke="#C4C4C4"/>
<line x1="110.493" y1="0.0812116" x2="70.4934" y2="243.081" stroke="#C4C4C4"/>
<line x1="90.4934" y1="0.0812116" x2="50.4934" y2="243.081" stroke="#C4C4C4"/>
<line x1="70.4934" y1="0.0812116" x2="30.4934" y2="243.081" stroke="#C4C4C4"/>
<line x1="50.4934" y1="0.0812116" x2="10.4934" y2="243.081" stroke="#C4C4C4"/>
<line x1="30.4934" y1="0.0812116" x2="-9.50663" y2="243.081" stroke="#C4C4C4"/>
<line x1="10.4934" y1="0.0812116" x2="-29.5066" y2="243.081" stroke="#C4C4C4"/>
<line x1="150.493" y1="0.0812116" x2="110.493" y2="243.081" stroke="#C4C4C4"/>
<line x1="170.493" y1="0.0812116" x2="130.493" y2="243.081" stroke="#C4C4C4"/>
<line x1="190.493" y1="0.0812116" x2="150.493" y2="243.081" stroke="#C4C4C4"/>
<line x1="210.493" y1="0.0812116" x2="170.493" y2="243.081" stroke="#C4C4C4"/>
<line x1="230.493" y1="0.0812116" x2="190.493" y2="243.081" stroke="#C4C4C4"/>
<line x1="250.493" y1="0.0812116" x2="210.493" y2="243.081" stroke="#C4C4C4"/>
<line x1="270.493" y1="0.0812116" x2="230.493" y2="243.081" stroke="#C4C4C4"/>
<line x1="290.493" y1="0.0812116" x2="250.493" y2="243.081" stroke="#C4C4C4"/>
<line x1="310.493" y1="0.0812116" x2="270.493" y2="243.081" stroke="#C4C4C4"/>
<line x1="330.493" y1="0.0812116" x2="290.493" y2="243.081" stroke="#C4C4C4"/>
<line x1="350.493" y1="0.0812116" x2="310.493" y2="243.081" stroke="#C4C4C4"/>
<line x1="370.493" y1="0.0812116" x2="330.493" y2="243.081" stroke="#C4C4C4"/>
<line x1="390.493" y1="0.0812116" x2="350.493" y2="243.081" stroke="#C4C4C4"/>
<line x1="410.493" y1="0.0812116" x2="370.493" y2="243.081" stroke="#C4C4C4"/>
<line x1="430.493" y1="0.0812116" x2="390.493" y2="243.081" stroke="#C4C4C4"/>
<line x1="450.493" y1="0.0812116" x2="410.493" y2="243.081" stroke="#C4C4C4"/>
<line x1="470.493" y1="0.0812116" x2="430.493" y2="243.081" stroke="#C4C4C4"/>
<line x1="490.493" y1="0.0812116" x2="450.493" y2="243.081" stroke="#C4C4C4"/>
<line x1="510.493" y1="0.0812116" x2="470.493" y2="243.081" stroke="#C4C4C4"/>
<line x1="530.493" y1="0.0812116" x2="490.493" y2="243.081" stroke="#C4C4C4"/>
<line x1="550.493" y1="0.0812116" x2="510.493" y2="243.081" stroke="#C4C4C4"/>
<line x1="570.493" y1="0.0812116" x2="530.493" y2="243.081" stroke="#C4C4C4"/>
<line x1="590.493" y1="0.0812116" x2="550.493" y2="243.081" stroke="#C4C4C4"/>
<line x1="610.493" y1="0.0812116" x2="570.493" y2="243.081" stroke="#C4C4C4"/>
<line x1="630.493" y1="0.0812116" x2="590.493" y2="243.081" stroke="#C4C4C4"/>
<line x1="650.493" y1="0.0812116" x2="610.493" y2="243.081" stroke="#C4C4C4"/>
<line x1="670.493" y1="0.0812116" x2="630.493" y2="243.081" stroke="#C4C4C4"/>
<line x1="690.493" y1="0.0812116" x2="650.493" y2="243.081" stroke="#C4C4C4"/>
<line x1="710.493" y1="0.0812116" x2="670.493" y2="243.081" stroke="#C4C4C4"/>
<line x1="730.493" y1="0.0812116" x2="690.493" y2="243.081" stroke="#C4C4C4"/>
<line x1="750.493" y1="0.0812116" x2="710.493" y2="243.081" stroke="#C4C4C4"/>
<line x1="770.493" y1="0.0812116" x2="730.493" y2="243.081" stroke="#C4C4C4"/>
<line x1="790.493" y1="0.0812116" x2="750.493" y2="243.081" stroke="#C4C4C4"/>
<line x1="810.493" y1="0.0812116" x2="770.493" y2="243.081" stroke="#C4C4C4"/>
<line x1="830.493" y1="0.0812116" x2="790.493" y2="243.081" stroke="#C4C4C4"/>
<line x1="850.493" y1="0.0812116" x2="810.493" y2="243.081" stroke="#C4C4C4"/>
<line x1="870.493" y1="0.0812116" x2="830.493" y2="243.081" stroke="#C4C4C4"/>
<line x1="890.493" y1="0.0812116" x2="850.493" y2="243.081" stroke="#C4C4C4"/>
<line x1="910.493" y1="0.0812116" x2="870.493" y2="243.081" stroke="#C4C4C4"/>
<line x1="930.493" y1="0.0812116" x2="890.493" y2="243.081" stroke="#C4C4C4"/>
<line x1="950.493" y1="0.0812116" x2="910.493" y2="243.081" stroke="#C4C4C4"/>
<line x1="970.493" y1="0.0812116" x2="930.493" y2="243.081" stroke="#C4C4C4"/>
<line x1="990.493" y1="0.0812116" x2="950.493" y2="243.081" stroke="#C4C4C4"/>
<line x1="1010.49" y1="0.0812116" x2="970.493" y2="243.081" stroke="#C4C4C4"/>
<line x1="1030.49" y1="0.0812116" x2="990.493" y2="243.081" stroke="#C4C4C4"/>
<line x1="1050.49" y1="0.0812116" x2="1010.49" y2="243.081" stroke="#C4C4C4"/>
<line x1="1070.49" y1="0.0812116" x2="1030.49" y2="243.081" stroke="#C4C4C4"/>
<line x1="1090.49" y1="0.0812116" x2="1050.49" y2="243.081" stroke="#C4C4C4"/>
<line x1="1110.49" y1="0.0812116" x2="1070.49" y2="243.081" stroke="#C4C4C4"/>
<line x1="1130.49" y1="0.0812116" x2="1090.49" y2="243.081" stroke="#C4C4C4"/>
<line x1="1150.49" y1="0.0812116" x2="1110.49" y2="243.081" stroke="#C4C4C4"/>
<line x1="1170.49" y1="0.0812116" x2="1130.49" y2="243.081" stroke="#C4C4C4"/>
<line x1="1190.49" y1="0.0812116" x2="1150.49" y2="243.081" stroke="#C4C4C4"/>
<line x1="1210.49" y1="0.0812116" x2="1170.49" y2="243.081" stroke="#C4C4C4"/>
<line x1="1230.49" y1="0.0812116" x2="1190.49" y2="243.081" stroke="#C4C4C4"/>
<line x1="1250.49" y1="0.0812116" x2="1210.49" y2="243.081" stroke="#C4C4C4"/>
<line x1="1270.49" y1="0.0812116" x2="1230.49" y2="243.081" stroke="#C4C4C4"/>
<line x1="1290.49" y1="0.0812116" x2="1250.49" y2="243.081" stroke="#C4C4C4"/>
<line x1="1310.49" y1="0.0812116" x2="1270.49" y2="243.081" stroke="#C4C4C4"/>
<line x1="1330.49" y1="0.0812116" x2="1290.49" y2="243.081" stroke="#C4C4C4"/>
<line x1="1350.49" y1="0.0812116" x2="1310.49" y2="243.081" stroke="#C4C4C4"/>
<line x1="1370.49" y1="0.0812116" x2="1330.49" y2="243.081" stroke="#C4C4C4"/>
<line x1="1390.49" y1="0.0812116" x2="1350.49" y2="243.081" stroke="#C4C4C4"/>
<line x1="1410.49" y1="0.0812116" x2="1370.49" y2="243.081" stroke="#C4C4C4"/>
<line x1="1430.49" y1="0.0812116" x2="1390.49" y2="243.081" stroke="#C4C4C4"/>
<line x1="1450.49" y1="0.0812116" x2="1410.49" y2="243.081" stroke="#C4C4C4"/>
<line x1="1470.49" y1="0.0812116" x2="1430.49" y2="243.081" stroke="#C4C4C4"/>
</svg>
