<svg width="136" height="35" viewBox="0 0 136 35" fill="none" xmlns="http://www.w3.org/2000/svg">
<path d="M47.184 3.74799C42.172 3.74799 39.736 6.71599 39.736 10.16C39.736 14.22 42.872 15.312 46.652 16.264C49.452 16.964 50.964 17.552 50.964 19.148C50.964 20.856 49.592 21.556 47.66 21.556C45.392 21.556 43.74 20.268 43.656 18.364L39.26 18.588C39.316 22.928 42.816 25.308 47.66 25.308C51.86 25.308 55.36 23.348 55.36 18.896C55.36 15.172 52.532 13.828 48.248 12.736C45.364 12.064 44.16 11.616 44.16 10.02C44.16 8.53599 45.28 7.49999 47.268 7.49999C49.256 7.49999 50.488 8.64799 50.516 10.412L54.94 10.188C54.828 6.15599 51.72 3.74799 47.184 3.74799Z" fill="#303030"/>
<path d="M62.6704 3.24399H58.5824V25H62.4464V23.516C63.2024 24.496 64.7144 25.308 66.7304 25.308C70.8464 25.308 73.7304 22.312 73.7304 17.776C73.7304 13.212 70.8464 10.244 66.7304 10.244C64.8824 10.244 63.4264 10.916 62.6704 11.784V3.24399ZM66.0864 13.744C68.1304 13.744 69.5864 15.2 69.5864 17.776C69.5864 20.352 68.1304 21.78 66.0864 21.78C64.0704 21.78 62.6704 20.436 62.6704 18.084V17.44C62.6704 15.116 64.0704 13.744 66.0864 13.744Z" fill="#303030"/>
<path d="M81.0728 25V3.24399H76.9848V25H81.0728Z" fill="#303030"/>
<path d="M98.6292 19.064V17.44C98.6292 12.932 95.8852 10.244 91.7132 10.244C87.4012 10.244 84.3492 13.1 84.3492 17.776C84.3492 22.424 87.4012 25.308 91.8252 25.308C95.2132 25.308 97.9852 23.348 98.4892 20.604L94.3732 20.408C94.0652 21.416 93.1412 22.004 91.7132 22.004C89.8652 22.004 88.7732 20.856 88.6892 19.064H98.6292ZM91.6852 13.436C93.5332 13.436 94.4292 14.584 94.5132 16.348H88.6892C88.8012 14.5 89.9492 13.436 91.6852 13.436Z" fill="#303030"/>
<path d="M109.624 10.244C107.664 10.244 106.376 11 105.732 12.008V10.524H101.868V25H105.956V16.964C105.956 15.228 107.02 14.052 108.644 14.052C110.212 14.052 111.192 15.088 111.192 16.936V25H115.28V16.152C115.28 12.4 112.956 10.244 109.624 10.244Z" fill="#303030"/>
<path d="M133.512 25V3.24399H129.452V11.784C128.696 10.916 127.24 10.244 125.364 10.244C121.276 10.244 118.392 13.212 118.392 17.776C118.392 22.312 121.276 25.308 125.364 25.308C127.408 25.308 128.92 24.496 129.676 23.516V25H133.512ZM126.036 13.744C128.052 13.744 129.452 15.116 129.452 17.44V18.084C129.452 20.436 128.052 21.78 126.036 21.78C123.992 21.78 122.536 20.352 122.536 17.776C122.536 15.2 123.992 13.744 126.036 13.744Z" fill="#303030"/>
<path d="M6.44766 0H20.5523C22.2624 0 23.9024 0.679248 25.1115 1.88832C26.3207 3.09739 27 4.73723 27 6.44712V20.5529C27 22.2628 26.3207 23.9026 25.1115 25.1117C23.9024 26.3208 22.2624 27 20.5523 27H0V6.44712C0 5.60047 0.166777 4.76211 0.490802 3.97991C0.814827 3.19771 1.28976 2.48699 1.88848 1.88832C2.4872 1.28965 3.19798 0.814755 3.98025 0.490757C4.76252 0.16676 5.60094 0 6.44766 0V0Z" fill="#0488E0"/>
</svg>
